<svg width="24" height="24" viewBox="0 0 24 24" fill="none" xmlns="http://www.w3.org/2000/svg">
<path d="M19.5 21.5C20.3284 21.5 21 20.8284 21 20C21 19.1716 20.3284 18.5 19.5 18.5C18.6716 18.5 18 19.1716 18 20C18 20.8284 18.6716 21.5 19.5 21.5Z" stroke="white" stroke-width="1.5" stroke-miterlimit="10" stroke-linecap="round" stroke-linejoin="round"/>
<path d="M9.5 21.5C10.3284 21.5 11 20.8284 11 20C11 19.1716 10.3284 18.5 9.5 18.5C8.67157 18.5 8 19.1716 8 20C8 20.8284 8.67157 21.5 9.5 21.5Z" stroke="white" stroke-width="1.5" stroke-miterlimit="10" stroke-linecap="round" stroke-linejoin="round"/>
<path d="M1.5 3.5H5.5L8 16.5H21L22.5 6.5H10" stroke="white" stroke-width="1.5" stroke-miterlimit="10" stroke-linecap="round" stroke-linejoin="round"/>
</svg>
